<svg width="16" height="16" viewBox="0 0 16 16" fill="none" xmlns="http://www.w3.org/2000/svg">
<path d="M8.00022 8.86592C7.91355 8.86592 7.82689 8.84592 7.74689 8.79925L1.86022 5.39259C1.62689 5.25259 1.54022 4.94592 1.68022 4.70592C1.82022 4.46592 2.12689 4.38592 2.36689 4.52592L8.00022 7.78592L13.6002 4.54592C13.8402 4.40592 14.1469 4.49259 14.2869 4.72592C14.4269 4.96592 14.3402 5.27259 14.1069 5.41259L8.26022 8.79925C8.17355 8.83925 8.08689 8.86592 8.00022 8.86592Z" fill="#858585"/>
<path d="M8 14.906C7.72667 14.906 7.5 14.6794 7.5 14.406V8.35938C7.5 8.08604 7.72667 7.85938 8 7.85938C8.27333 7.85938 8.5 8.08604 8.5 8.35938V14.406C8.5 14.6794 8.27333 14.906 8 14.906Z" fill="#858585"/>
<path d="M7.99993 15.1654C7.41326 15.1654 6.83326 15.0387 6.37326 14.7854L2.81326 12.8054C1.84659 12.272 1.09326 10.9854 1.09326 9.8787V6.11203C1.09326 5.00536 1.84659 3.72536 2.81326 3.18536L6.37326 1.21203C7.2866 0.705365 8.71326 0.705365 9.62659 1.21203L13.1866 3.19203C14.1533 3.72536 14.9066 5.01203 14.9066 6.1187V9.88536C14.9066 10.992 14.1533 12.272 13.1866 12.812L9.62659 14.7854C9.16659 15.0387 8.5866 15.1654 7.99993 15.1654ZM7.99993 1.83203C7.57993 1.83203 7.16659 1.9187 6.85993 2.08536L3.29993 4.06536C2.65993 4.4187 2.09326 5.3787 2.09326 6.11203V9.8787C2.09326 10.612 2.65993 11.572 3.29993 11.932L6.85993 13.912C7.4666 14.252 8.53326 14.252 9.13993 13.912L12.6999 11.932C13.3399 11.572 13.9066 10.6187 13.9066 9.8787V6.11203C13.9066 5.3787 13.3399 4.4187 12.6999 4.0587L9.13993 2.0787C8.83326 1.9187 8.41993 1.83203 7.99993 1.83203Z" fill="#858585"/>
</svg>
